<svg xmlns="http://www.w3.org/2000/svg" width="500" height="300" viewBox="0 0 500 300" version="1.1"><path d="M 138.273 24.512 C 132.235 27.566, 128.646 31.452, 125.355 38.500 L 123.020 43.500 123.010 114.884 C 123.002 168.032, 123.311 187.319, 124.216 190.384 C 125.839 195.877, 134.123 204.161, 139.616 205.784 C 144.860 207.333, 151.140 207.333, 156.384 205.784 C 161.877 204.161, 170.161 195.877, 171.784 190.384 C 172.665 187.402, 173 172.997, 173 138.108 L 173 89.949 176.250 91.592 C 179.268 93.118, 183.647 95.627, 207.500 109.494 C 212.450 112.372, 219.875 116.652, 224 119.005 C 233.923 124.665, 246.509 131.946, 263 141.566 C 286.506 155.278, 290.347 157, 297.423 157 C 305.474 157, 311.739 155.049, 321 149.657 C 325.125 147.255, 337.050 140.332, 347.500 134.272 C 357.950 128.212, 370.550 120.882, 375.500 117.983 C 400.827 103.150, 418.654 93, 419.378 93 C 419.703 93, 420.088 133.387, 420.234 182.750 C 420.490 269.223, 420.571 272.643, 422.437 276.403 C 431.804 295.283, 457.511 295.679, 467.220 277.094 L 470.025 271.724 469.762 156.533 L 469.500 41.343 466.474 36.448 C 461.989 29.194, 455.648 25.622, 446.431 25.157 C 437.801 24.721, 433.946 25.836, 424.500 31.502 C 420.650 33.811, 414.350 37.420, 410.500 39.522 C 406.650 41.624, 402.375 44.112, 401 45.051 C 399.625 45.990, 394.900 48.761, 390.500 51.210 C 383.580 55.061, 371.803 61.828, 350 74.483 C 323.280 89.992, 316.304 94.026, 308.218 98.642 L 298.936 103.942 279.718 92.830 C 269.148 86.719, 254.425 78.253, 247 74.018 C 239.575 69.783, 229.450 63.939, 224.500 61.032 C 219.550 58.125, 211 53.178, 205.500 50.039 C 200 46.900, 191 41.718, 185.500 38.523 C 157.887 22.485, 158.040 22.556, 150.500 22.200 C 144.520 21.917, 142.738 22.254, 138.273 24.512" stroke="none" fill="#14a40c" fill-rule="evenodd"/><path d="M 38.222 21.538 C 35.319 23.006, 31.846 25.647, 30.503 27.407 C 24.684 35.036, 25 27.921, 25 151.353 C 25 280.760, 24.390 271.460, 33.466 280.534 C 36.637 283.705, 40.023 286.018, 42.616 286.784 C 48.577 288.545, 313.423 288.545, 319.384 286.784 C 324.877 285.161, 333.161 276.877, 334.784 271.384 C 336.333 266.140, 336.333 259.860, 334.784 254.616 C 333.161 249.123, 324.877 240.839, 319.384 239.216 C 316.252 238.291, 286.429 238, 194.648 238 L 74.028 238 73.764 136.671 L 73.500 35.342 70.474 30.448 C 66.006 23.222, 59.630 19.613, 50.597 19.196 C 44.503 18.915, 42.754 19.246, 38.222 21.538" stroke="none" fill="#fcfcfc" fill-rule="evenodd"/></svg>